<svg width="240" height="56" viewBox="0 0 240 56" fill="none" xmlns="http://www.w3.org/2000/svg">
<path d="M26.6853 27.7486C37.6285 28.6605 50.5257 21.4953 46.878 34.2623C47.3991 35.3045 48.9624 31.6568 49.0927 31.3963C49.0927 31.266 49.6138 29.7027 49.7441 30.3541C49.3533 31.1357 49.0927 32.0477 48.9624 32.9596C48.9624 33.2201 48.9624 33.4807 48.9624 33.611C49.0927 33.3504 49.223 33.0899 49.223 32.699C49.4835 32.0477 49.7441 31.3963 49.8744 30.7449C49.8744 30.6146 50.0046 30.3541 50.0046 30.0935C50.0046 29.833 50.3955 29.5724 50.2652 29.9632C50.1349 30.4843 50.0046 30.8752 49.8744 31.3963C50.0046 31.7871 50.0046 31.5266 50.1349 31.266C50.2652 31.0055 50.2652 30.7449 50.3955 30.3541C50.5257 29.9632 50.656 29.4421 50.7863 28.7908C50.7863 28.3999 51.0468 28.0091 51.0468 28.3999C50.9166 29.1816 50.656 30.3541 50.3955 31.0055C50.3955 31.1357 50.3955 31.3963 50.5257 31.3963C50.656 30.8752 50.7863 30.3541 51.0468 29.9632C51.4377 29.833 50.656 31.5266 50.656 32.1779C50.7863 31.7871 51.0468 31.3963 51.3074 31.0055C51.6982 31.0055 51.1771 31.266 51.1771 31.5266C50.9166 32.1779 50.656 32.9596 50.656 33.611C50.9166 32.9596 51.1771 32.3082 51.5679 31.7871C51.4377 32.5688 51.1771 33.3504 50.9166 34.1321C50.7863 34.3926 50.656 34.7834 50.5257 35.044C50.3955 35.1743 50.3955 35.3045 50.5257 35.4348C50.656 35.1743 50.7863 34.9137 50.9166 34.6532C51.0468 34.3926 51.0468 34.1321 51.3074 34.3926C51.0468 35.1743 50.5257 35.9559 50.1349 36.7376C49.8744 37.1284 49.4835 37.91 49.8744 37.5192C50.0046 37.2587 50.1349 37.1284 50.2652 36.8678L50.656 36.2165C50.7863 36.0862 50.9166 36.0862 51.0468 36.0862C50.7863 36.6073 50.3955 37.1284 50.1349 37.6495C49.4835 38.4311 49.0927 39.3431 48.4413 39.9944C48.4413 40.5156 47.9202 40.9064 48.8322 40.5156C49.6138 39.7339 50.3955 38.822 50.9166 37.7798H51.1771C50.5257 38.9523 49.7441 40.1247 48.8322 41.1669C48.4413 41.4275 48.1808 41.8183 47.9202 42.0789C48.0505 42.0789 48.0505 42.0789 48.1808 42.0789C48.5716 41.688 48.9624 41.2972 49.3533 40.9064L49.4835 41.0367C48.7019 42.0789 47.9202 42.9908 46.878 43.7724C46.6175 44.033 46.2267 44.2935 45.8358 44.4238C46.2267 44.6844 47.79 43.3816 48.1808 43.1211C48.1808 42.9908 48.3111 42.9908 48.4413 42.8605C48.4413 42.7302 48.8322 42.4697 48.8322 42.8605C48.3111 43.2513 47.79 43.7724 47.2689 44.2935C46.4872 45.0752 45.445 45.7266 44.5331 46.2477C45.3147 46.1174 46.0964 45.7266 46.6175 45.2055C46.878 45.0752 47.0083 44.8146 47.2689 44.6844C47.3991 44.8146 47.3991 44.8146 47.5294 44.8146C47.0083 45.2055 46.4872 45.5963 45.9661 45.9871C45.3147 46.3779 44.6634 46.899 44.012 47.1596C43.3606 47.5504 42.7092 47.811 42.0578 48.0715C42.4487 48.0715 42.8395 48.0715 43.2303 47.9412C44.1423 47.6807 44.9239 47.2899 45.5753 46.7688C45.8358 47.0293 45.7056 47.0293 45.445 47.1596C45.0542 47.4201 44.6634 47.5504 44.4028 47.811C44.012 47.9412 43.4909 48.3321 43.1 48.4623C42.1881 48.9834 41.1459 49.3743 40.1037 49.7651C39.8432 49.7651 39.4523 50.0257 39.1918 50.0257C38.9312 50.0257 39.0615 50.1559 39.1918 50.1559C39.7129 50.1559 40.3643 50.1559 40.8854 50.0257C41.2762 49.8954 41.667 49.8954 42.0578 49.6348C42.5789 49.5046 43.2303 49.1137 43.8817 48.8532C43.8817 48.8532 44.012 48.9834 44.012 49.1137C43.3606 49.5046 42.7092 49.7651 42.0578 50.0257L41.9276 50.1559C41.667 50.1559 40.8854 50.5468 40.6248 50.5468C39.9734 50.8073 39.1918 50.9376 38.5404 51.1981C39.0615 51.3284 39.7129 51.1981 40.234 51.0679C40.3643 51.1981 40.4945 51.3284 40.6248 51.3284C40.3643 51.8495 40.1037 52.5009 39.7129 52.8917C39.0615 53.2825 38.2799 53.6734 37.6285 54.0642C37.3679 54.0642 37.2377 54.0642 37.3679 53.6734C37.3679 53.6734 37.889 53.022 37.6285 53.022C37.3679 53.022 37.2377 53.022 37.2377 53.2825C37.2377 53.4128 37.2377 53.4128 37.1074 53.5431C37.1074 54.0642 36.9771 54.455 36.5863 54.8458C36.1954 55.1064 35.8046 55.2367 35.2835 55.3669C34.3716 55.3669 33.3294 55.888 32.5477 55.3669C32.2872 55.3669 32.0266 55.3669 32.1569 55.1064C32.2872 55.1064 32.4175 55.1064 32.5477 55.1064C32.9386 55.1064 34.7624 54.5853 34.5019 54.1945C34.3716 54.1945 34.111 54.1945 33.9808 54.0642C33.8505 54.0642 33.7202 53.9339 33.5899 53.9339C33.3294 53.8036 33.0688 53.6734 32.678 53.6734C32.5477 53.5431 32.2872 53.5431 32.678 53.8036C32.8083 54.0642 32.678 54.3247 32.4175 54.5853C32.2872 54.7156 32.1569 54.8458 32.0266 54.8458C31.7661 54.8458 30.9844 54.8458 30.9844 54.5853C30.7239 54.7156 30.9844 54.7156 30.9844 54.8458C30.9844 54.9761 30.8542 55.2367 30.8542 55.2367C30.5936 55.7578 29.2909 55.6275 28.7698 55.6275C28.6395 55.6275 28.3789 55.4972 28.2487 55.4972C27.467 55.1064 26.6853 54.7156 26.034 54.3247C25.7734 54.455 25.5129 54.5853 25.2523 54.7156C24.6009 55.3669 23.8193 55.7578 23.0376 55.888C22.7771 56.0183 22.5165 55.888 22.3863 55.6275C22.256 55.6275 22.256 55.2367 22.256 55.2367C22.256 55.2367 22.6468 54.8458 22.256 54.9761C21.7349 55.2367 21.2138 55.3669 20.6927 55.2367C20.3019 54.8458 20.3019 54.7156 20.6927 54.3247C20.5624 54.1945 20.4321 54.1945 20.3019 54.0642C20.3019 53.9339 20.3019 53.8036 20.1716 53.6734C19.7808 53.9339 19.2597 53.9339 18.8688 53.6734C18.6083 53.9339 18.2174 54.1945 17.6963 54.1945L17.3055 54.0642C16.5239 54.0642 16.6541 54.0642 16.6541 54.7156C16.6541 54.8458 16.6541 54.9761 16.6541 55.1064C16.6541 55.2367 16.5239 55.4972 16.3936 55.4972C16.0028 55.7578 15.6119 55.888 15.0908 55.888C14.8303 55.888 14.4395 55.7578 14.3092 55.4972C14.0486 55.4972 14.1789 55.3669 14.1789 55.2367C13.7881 54.7156 13.9184 54.0642 14.3092 53.5431C14.3092 53.5431 14.5697 53.1523 14.4395 53.1523C14.3092 53.1523 14.4395 52.8917 14.3092 52.8917C14.1789 52.8917 14.1789 52.7614 14.0486 52.7614C13.7881 52.6312 13.5275 52.6312 13.1367 52.7614C12.7459 53.4128 12.2248 53.9339 11.4431 54.0642C11.1826 53.9339 11.0523 53.8036 11.0523 53.5431C10.922 53.022 10.922 52.6312 11.0523 52.1101C10.7918 52.1101 10.6615 51.9798 10.5312 51.8495C10.4009 51.7192 10.4009 51.589 10.4009 51.4587C10.4009 51.3284 10.4009 51.1981 10.2707 51.0679C10.2707 50.8073 9.74955 51.0679 9.489 51.0679H8.70735V50.9376C8.18625 50.8073 7.79542 50.2862 8.05597 49.7651C8.05597 49.7651 8.05597 49.7651 8.05597 49.6348C7.9257 49.6348 8.05597 49.5046 8.05597 49.3743C8.4468 48.9834 8.83762 48.7229 9.35872 48.4623C9.22845 48.3321 9.09817 48.3321 8.9679 48.2018V48.0715C8.57707 48.0715 9.09817 47.4201 8.4468 47.4201C8.31652 47.2899 8.18625 47.2899 8.05597 47.2899H7.9257C7.27432 47.1596 6.62294 46.7688 6.23212 46.2477C6.36239 46.1174 6.49267 45.9871 6.62294 45.8568C7.01377 45.5963 6.23212 45.7266 6.23212 45.3357C5.97157 45.2055 5.84129 44.8146 5.84129 44.5541C5.97157 44.1633 6.23212 43.7724 6.62294 43.6422C6.36239 43.5119 5.97157 43.5119 5.58074 43.5119H4.92936C4.66881 43.3816 4.27799 43.2513 4.14771 42.9908C4.01743 42.7302 4.01744 42.3394 4.01744 41.9486C4.01744 41.5578 4.92936 41.4275 4.92936 41.0367C4.66881 40.7761 4.40826 40.5156 4.27799 40.1247C4.14771 39.7339 4.14771 39.2128 4.14771 38.822C3.62661 38.9522 3.10551 38.6917 2.84496 38.1706C2.45413 37.7798 2.32386 37.1284 2.32386 36.6073C2.32386 35.9559 1.80275 36.3467 1.5422 36.0862C1.28165 36.0862 1.5422 35.5651 1.28165 35.4348C0.760551 35.1743 0.5 34.7834 0.5 34.2623C0.5 33.4807 1.41193 34.1321 1.41193 33.4807C1.41193 32.4385 1.5422 32.699 2.19358 32.1779C2.32386 31.7871 1.93303 31.9174 1.93303 31.5266C1.80275 31.266 1.67248 31.0055 1.5422 30.7449C1.41193 30.0935 1.80275 29.4421 2.45413 29.1816H2.71468C2.97523 29.3119 3.10551 29.4421 3.36606 29.5724C3.62661 29.9632 3.49633 29.5724 3.36606 29.5724C3.23578 29.5724 3.36606 28.921 3.23578 28.921C3.23578 28.7908 3.23578 28.5302 3.23578 28.2697C3.10551 28.2697 3.23578 28.0091 3.23578 27.8788L26.6853 27.7486Z" fill="#010101"/>
<path d="M22.9065 55.1064H23.167H23.2973H23.4276H23.5578L23.8184 55.2367L23.9487 55.367H24.0789L23.9487 55.4973H23.8184H23.6881L23.4276 55.6275H23.2973H23.167H23.0367H22.9065H22.6459L22.5156 55.4973V55.367V55.2367H22.6459V55.1064H22.7762H22.9065Z" fill="#4A6F6F"/>
<path d="M28.8961 55.1065V54.9762H29.0264H29.1567H29.2869L29.4172 54.8459H29.5475H29.6778H29.808H29.9383H30.1989H30.3291H30.4594L30.5897 54.9762L30.4594 55.1065H30.3291V55.2368H30.1989L30.0686 55.3671H29.9383H29.808L29.6778 55.4973H29.5475H29.2869H29.1567H29.0264H28.8961H28.6356H28.5053L28.375 55.3671L28.5053 55.2368H28.6356V55.1065H28.7658H28.8961Z" fill="#4A6F6F"/>
<path d="M13.5312 51.9798C13.5312 50.9376 14.4432 51.1982 15.0946 50.9376C15.6157 50.8074 16.0065 50.6771 16.3973 50.2863C16.5276 49.5046 15.8762 49.8954 15.8762 49.2441C15.8762 48.5927 16.3973 48.8532 16.7881 48.8532C16.9184 48.8532 17.0487 48.9835 17.179 48.9835C16.9184 49.1138 16.6579 49.5046 16.7881 49.7651C16.7881 49.8954 16.3973 50.6771 16.7881 50.6771C16.7881 50.8074 17.0487 50.6771 16.7881 50.8074C16.7881 51.3285 15.3551 52.1101 15.2248 52.2404C15.3551 52.5009 16.0065 51.9798 16.1368 51.8496C16.0065 52.2404 16.0065 52.5009 15.7459 52.7615C15.6157 53.2826 15.4854 53.8037 15.4854 54.3248C15.4854 54.7156 15.6157 54.3248 15.6157 54.1945C15.7459 53.2826 16.1368 52.5009 16.5276 51.7193C16.5276 51.9798 16.6579 52.2404 16.7881 52.3707C16.9184 52.6312 16.9184 52.8918 17.179 53.022C17.5698 53.2826 17.0487 51.9798 17.0487 51.8496C16.9184 51.589 16.9184 51.1982 17.179 50.9376C17.179 50.9376 17.5698 51.589 17.5698 51.0679C17.8303 51.0679 18.0909 51.0679 18.3514 51.0679L20.3056 51.1982C20.4358 51.4587 20.4358 51.8496 20.1753 51.9798C20.045 51.9798 20.045 52.1101 19.9147 52.1101C19.2634 52.1101 18.4817 51.3285 18.3514 51.589C17.5698 52.2404 19.2634 53.1523 18.4817 53.5431C18.0909 53.6734 17.5698 53.5431 17.179 53.2826C15.8762 53.6734 17.0487 55.1064 15.4854 55.1064C14.5735 55.1064 14.5735 54.0642 15.0946 53.5431C15.6157 53.022 15.4854 52.2404 14.834 52.2404C14.0524 52.5009 13.7918 52.3707 13.5312 51.9798Z" fill="#039E49"/>
<path d="M34.8963 54.8459H35.0266H35.1569H35.2871H35.4174H35.5477L35.2871 54.9762H35.1569H35.0266L34.8963 55.1065H34.766H34.5055H34.3752H34.2449H34.1147H33.9844H34.1147H34.2449H34.3752H34.5055L34.6358 54.9762L34.766 54.8459H34.8963Z" fill="#039E49"/>
<path d="M20.5625 54.8458L20.6928 54.7156H20.8231H20.9533H21.0836H21.2139H21.3442H21.4744V54.8458H21.6047H21.735L21.6047 54.9761H21.4744L21.3442 55.1064H21.2139H21.0836H20.9533H20.8231H20.6928V54.9761H20.5625V54.8458Z" fill="#4A6F6F"/>
<path d="M30.9844 54.1945H31.1147H31.2449H31.3752V54.0642H31.5055H31.6358H31.766H31.8963H32.0266H32.1569V54.1945V54.3248L31.8963 54.455V54.5853H31.766H31.6358H31.5055H31.3752H31.2449H31.1147H30.9844V54.455V54.3248V54.1945Z" fill="#4A6F6F"/>
<path d="M22.5209 52.501V52.6312L22.6512 52.7615H22.7815L22.9117 52.8918H23.042V53.0221H22.9117H22.7815H22.6512L22.5209 53.1524H22.3906V53.0221V52.8918V52.7615L22.5209 52.501Z" fill="white"/>
<path d="M24.4758 52.7616C24.085 52.3707 23.9547 51.9799 23.9547 51.4588C23.6942 51.4588 23.5639 51.068 23.3034 51.068C22.652 51.3285 21.7401 52.1102 21.219 51.7194C20.9584 51.7194 20.8281 51.4588 20.8281 51.1983C20.8281 51.068 20.9584 50.9377 20.9584 50.9377C21.0887 50.8074 20.8281 50.0258 21.219 50.0258C21.219 50.1561 21.6098 50.0258 21.6098 50.0258C22.0006 49.7652 22.3914 50.4166 22.5217 50.5469C22.9125 50.4166 22.2612 49.8955 22.2612 49.7652C22.2612 49.6349 24.4758 49.635 24.4758 50.2863C24.7364 50.2863 24.7364 50.9377 24.7364 51.1983C24.9969 51.4588 24.8667 50.6772 24.8667 50.5469C24.8667 49.8955 25.3878 50.6772 25.3878 50.8074C25.3878 50.9377 26.43 52.3707 26.6905 51.8496C26.1694 51.3285 25.7786 50.8074 25.3878 50.1561C25.3878 50.0258 24.9969 49.8955 25.2575 50.0258C25.7786 50.0258 26.2997 50.2863 26.6905 49.635C26.43 49.7652 23.8245 49.635 23.8245 49.2441H22.652C23.1731 48.8533 23.5639 48.4625 23.9547 47.9414C23.4336 48.2019 22.9125 48.5927 22.5217 48.8533C21.0887 50.0258 21.8703 48.0716 21.8703 48.0716C21.8703 48.0716 22.1309 47.8111 22.0006 47.6808C22.2612 47.4203 22.652 47.1597 22.9125 47.0294C23.1731 46.8992 23.4336 46.8992 23.8245 46.8992C23.9547 46.8992 24.085 47.0294 24.2153 47.0294C24.3456 47.29 24.4758 47.5505 24.4758 47.8111C24.4758 48.723 25.518 48.5927 26.2997 48.4625C26.8208 48.5927 27.0813 48.8533 27.3419 49.3744C27.2116 49.6349 27.0813 49.7652 26.8208 50.0258C26.8208 50.1561 26.8208 50.1561 26.6905 50.2863C26.6905 51.068 27.7327 51.068 27.7327 51.5891C27.7327 51.8496 27.863 52.501 27.3419 52.501C27.0813 52.8918 26.0391 52.6313 26.0391 52.1102C25.9089 52.1102 25.7786 51.9799 25.6483 51.8496C24.9969 52.1102 24.8667 52.6313 24.4758 52.7616Z" fill="#039E49"/>
<path d="M23.0367 52.1101H22.9065V51.9798L22.7762 51.8496H22.6459V51.7193H22.5156V51.589V51.4587H22.6459H22.7762H22.9065H23.0367L23.167 51.589H23.2973L23.4276 51.7193L23.5578 51.8496H23.6881V51.9798V52.1101V52.2404V52.3707V52.2404H23.5578H23.4276L23.2973 52.1101H23.167H23.0367Z" fill="#039E49"/>
<path d="M34.1114 51.7194C33.1995 51.8496 32.2875 51.9799 31.3756 51.9799C30.8545 52.1102 30.3334 51.7194 30.2031 51.3285C30.2031 51.1983 30.2031 51.068 30.2031 51.068C30.2031 50.0258 32.5481 50.9377 33.1995 51.068C33.9811 51.1983 34.7628 51.3285 35.5444 51.3285C36.3261 51.3285 35.1536 51.5891 35.0233 51.5891C34.6325 51.5891 34.3719 51.5891 34.1114 51.7194Z" fill="#FBED24"/>
<path d="M10.5272 50.9376C10.3969 50.8073 10.1364 50.6771 9.8758 50.6771C9.3547 50.6771 8.3125 51.1982 8.3125 50.2862C8.3125 49.3743 8.70333 49.5046 9.09415 49.244C9.22443 49.3743 10.1364 49.244 10.1364 48.8532C10.3969 48.5927 9.74553 47.5505 11.0483 48.2018C11.9602 48.2018 12.4813 48.3321 12.4813 47.2899C12.4813 46.5083 13.7841 46.1174 13.9143 46.7688C14.3052 46.8991 14.696 47.2899 14.8263 47.6807C14.8263 47.9413 14.8263 48.3321 14.8263 48.5927C14.3052 48.4624 13.7841 48.2018 13.3932 47.9413C13.263 47.6807 13.263 47.811 13.1327 47.811C13.3932 48.2018 13.6538 48.4624 14.0446 48.4624C13.5235 48.5927 13.0024 48.7229 12.4813 48.8532C11.9602 48.8532 11.4391 48.7229 10.918 48.3321C10.918 48.4624 10.7877 48.4624 10.7877 48.5927C11.0483 48.5927 11.5694 48.9835 11.8299 48.9835C11.3088 49.1138 10.7877 49.244 10.2666 49.244C10.2666 49.244 9.48498 49.5046 10.3969 49.5046C10.918 49.6349 11.5694 49.5046 12.0905 49.244C11.8299 49.6349 11.5694 50.0257 11.4391 50.4165C11.8299 50.156 12.0905 49.7651 12.351 49.3743C12.7419 48.9835 13.263 48.7229 13.9143 48.7229C14.4354 48.5927 12.7419 49.7651 13.5235 49.7651C13.7841 49.244 14.1749 48.9835 14.696 48.7229H15.3474C14.696 48.9835 15.3474 49.3743 15.3474 49.3743C16.7804 49.7651 15.4776 50.5468 14.3052 50.5468C14.0446 50.5468 13.7841 50.8073 13.7841 51.0679C13.5235 51.3284 12.8721 50.156 12.351 50.8073C12.0905 51.3284 11.5694 51.589 11.0483 51.589C10.6575 51.589 10.5272 51.1982 10.5272 50.9376Z" fill="#039E49"/>
<path d="M28.2502 51.3284L28.3805 51.1981H28.5108L28.7713 51.0678L28.9016 50.9376H29.1621L29.4227 50.677H29.553L29.6832 50.8073L29.553 50.9376L29.2924 51.0678H29.1621L29.0319 51.1981H28.7713L28.641 51.3284L28.3805 51.4587H28.2502L28.1199 51.5889L27.9897 51.7192H27.8594V51.5889V51.4587H27.9897L28.2502 51.3284Z" fill="#FBED24"/>
<path d="M27.7242 51.1981C27.594 51.1981 27.4637 51.0678 27.3334 50.9376C27.3334 50.8073 27.3334 50.8073 27.2031 50.677C27.4637 49.7651 27.9848 48.9834 28.6362 48.4623C29.2875 47.9412 30.0692 47.4201 30.8508 47.0293C30.0692 47.8109 29.5481 48.7229 29.1573 49.7651C28.8967 50.4165 28.3756 50.9376 27.7242 51.1981Z" fill="#FBED24"/>
<path d="M17.695 50.9377C17.0436 50.6772 17.4344 49.8955 17.9555 49.5047C18.0858 49.3744 18.2161 48.9836 18.2161 48.8533C18.2161 48.0717 16.3922 48.4625 16.2619 48.4625C15.7408 48.4625 15.2197 48.202 15.0895 47.6809C15.35 47.5506 15.6106 47.5506 16.0014 47.5506C17.0436 47.1598 15.8711 46.1176 15.2197 46.1176C15.0895 45.9873 14.6986 45.857 14.6986 45.7267C14.4381 45.2056 14.6986 44.5543 15.0895 44.2937C15.4803 44.424 16.0014 44.6845 16.3922 44.9451C16.5225 45.2056 16.6528 45.3359 16.9133 45.4662C17.0436 45.5965 18.0858 45.2056 18.0858 45.7267L18.4766 45.857C19.128 45.857 18.2161 46.8992 19.5188 46.8992C19.9096 46.7689 20.4307 46.7689 20.8216 46.8992C21.8638 47.6809 20.4307 48.9836 20.3005 49.8955C20.0399 49.1139 19.9096 48.3322 19.9096 47.5506C19.6491 47.5506 19.7794 47.5506 19.6491 47.6809C19.6491 47.9414 19.6491 48.3322 19.6491 48.5928C19.5188 48.4625 19.2583 48.3322 19.128 48.202C18.9977 48.0717 18.2161 47.4203 18.2161 47.4203C17.9555 47.4203 17.8252 45.4662 17.5647 45.857C17.5647 46.2478 17.5647 46.7689 17.695 47.1598C16.783 46.7689 16.0014 45.9873 15.6106 45.0754H15.4803C15.7408 45.9873 16.3922 46.6387 17.1739 47.1598C18.0858 47.6809 16.3922 47.29 16.3922 47.5506C16.3922 47.8111 17.695 47.6809 17.9555 47.6809C18.6069 48.0717 19.2583 48.7231 19.6491 49.3744C19.128 49.2442 18.7372 49.3744 18.2161 49.5047C18.2161 49.7653 19.6491 49.5047 19.7794 49.8955C19.7794 50.1561 19.7794 50.5469 19.9096 50.8075C19.6491 50.9377 19.2583 50.8075 18.9977 50.9377C18.7372 51.068 17.5647 50.9377 17.5647 50.9377H17.695Z" fill="#039E49"/>
<path d="M39.8445 50.5468C38.5417 51.0679 37.1087 51.1982 35.806 50.8074C35.4151 50.8074 35.806 50.6771 36.0665 50.6771C36.5876 50.5468 37.1087 50.4166 37.6298 50.156C38.4115 50.4166 39.1931 50.5468 39.8445 50.5468Z" fill="#FBED24"/>
<path d="M32.6765 49.3743C33.1976 49.3743 33.5884 49.3743 34.1095 49.5045C35.0214 49.7651 35.9334 49.8954 36.8453 50.0256C36.9756 50.0256 37.4967 50.1559 37.1058 50.1559C36.8453 50.2862 36.4545 50.2862 36.1939 50.4165C35.1517 50.8073 33.9792 50.8073 32.8067 50.677C31.8948 50.5467 32.1554 49.3743 32.6765 49.3743Z" fill="#FBED24"/>
<path d="M29.8108 50.5468C28.2475 49.7652 31.7649 47.0294 32.4163 46.6385C31.7649 47.6808 31.1135 48.8532 30.7227 50.0257C30.5924 50.4165 30.3319 50.5468 29.8108 50.5468Z" fill="#FBED24"/>
<path d="M37.8901 49.6349C37.6295 49.6349 37.1084 49.6349 37.7598 49.3743C38.5414 49.1138 39.3231 48.8532 40.1048 48.4624C40.3653 48.4624 40.4956 48.5927 40.7561 48.5927C41.4075 48.5927 42.0589 48.5927 42.7103 48.4624C41.7983 48.9835 40.8864 49.3743 39.8442 49.6349C39.1928 49.6349 38.5414 49.6349 37.8901 49.6349Z" fill="#FBED24"/>
<path d="M31.898 49.3744C31.6375 49.3744 31.7677 49.2441 31.7677 49.2441C30.8558 48.3322 33.9824 45.9872 34.243 46.1175C33.331 47.4203 33.5916 48.8533 31.898 49.3744Z" fill="#FBED24"/>
<path d="M38.0227 48.8532C38.4135 48.8532 38.0227 48.9835 38.0227 48.8532C37.2411 49.2441 36.4594 49.3743 35.6778 49.3743C35.0264 49.3743 34.375 49.5046 34.375 48.723C34.375 47.9413 36.3291 48.3321 36.8502 48.4624C37.2411 48.723 37.6319 48.8532 38.0227 48.8532Z" fill="#FBED24"/>
<path d="M26.9453 48.7229L27.0756 48.4624L27.3361 48.3321L27.5967 48.0716L27.8572 47.9413L28.1178 47.811L28.5086 47.5505H28.7692L29.16 47.2899L29.0297 47.5505H28.8994V47.6807L28.7692 47.811H28.5086V47.9413L28.3783 48.0716L28.2481 48.2018L27.9875 48.4624L27.8572 48.5927V48.7229L27.727 48.8532L27.5967 48.9835H27.4664V49.1138H27.3361V48.9835H27.2059V48.8532H27.0756H26.9453V48.7229Z" fill="#FBED24"/>
<path d="M8.83614 47.4202C8.83614 47.0294 9.87834 46.7688 9.87834 46.1175C9.87834 45.7266 9.09669 45.3358 8.96641 44.8147C8.96641 44.033 9.74807 44.4239 9.48752 43.7725C9.35724 43.5119 9.09669 43.2514 8.83614 43.1211C8.57559 42.7303 8.44531 42.3395 8.44531 41.8184C8.57559 41.5578 8.83614 41.2973 9.09669 41.167C9.35724 41.167 9.61779 41.167 9.87834 41.167C10.3994 41.6881 10.1389 43.1211 11.5719 42.0789C11.7022 42.2092 11.8325 42.3395 11.9627 42.4697C12.3536 42.4697 12.093 43.6422 12.4838 43.6422C12.8747 44.0331 13.6563 43.3817 13.7866 43.7725C14.0472 43.7725 14.3077 44.0331 14.3077 44.2936C14.3077 44.4239 14.1774 44.6844 14.1774 44.8147C14.0472 44.945 13.9169 45.2055 13.9169 45.4661C14.438 46.1175 12.6141 45.7266 13.1352 45.3358C13.1352 45.2055 13.1352 45.0753 13.1352 44.945C12.6141 44.945 13.005 45.9872 12.6141 45.9872C12.6141 45.9872 12.4838 45.9872 12.4838 46.1175C12.093 46.1175 12.6141 46.7688 12.2233 46.1175C11.7022 45.4661 11.4416 44.5542 11.5719 43.6422C11.7022 43.3817 11.5719 42.9908 11.5719 42.7303C11.1811 42.7303 11.1811 43.7725 11.1811 44.0331C11.1811 44.5542 10.2692 43.1211 10.1389 42.9908C9.87834 42.6 9.35724 42.0789 9.09669 41.6881C8.70586 41.9486 10.3994 43.6422 10.5297 44.0331C10.66 44.4239 10.7903 44.4239 10.3994 44.2936C10.0086 44.2936 9.61779 44.2936 9.22697 44.1633C9.09669 44.5542 10.66 44.5542 11.0508 44.6844C11.1811 45.2055 11.4416 45.5964 11.8325 45.9872C11.9627 46.2477 12.2233 45.9872 11.8325 46.378C11.4416 46.7688 10.7903 46.2477 10.5297 46.378C10.0086 46.378 11.4416 46.8991 10.7903 47.0294C10.66 47.0294 10.66 47.0294 10.5297 47.1597C10.3994 47.1597 10.2692 47.1597 10.1389 47.2899C9.87834 47.4202 9.74807 47.6808 9.74807 48.0716C9.35724 48.0716 8.96641 47.811 8.83614 47.4202Z" fill="#039E49"/>
<path d="M37.7613 47.0293C38.6732 47.0293 39.4549 47.2898 40.3668 47.2898C39.4549 47.9412 36.4586 48.8532 36.7191 47.4201C36.9797 47.1596 37.3705 47.0293 37.7613 47.0293Z" fill="#FBED24"/>
<path d="M34.3752 48.0717C34.2449 48.0717 34.1147 47.9414 33.9844 47.8111C33.9844 46.3781 34.8963 46.1175 35.8082 45.3359C35.9385 45.2056 36.0688 45.0753 36.1991 44.9451C35.9385 45.3359 35.8082 45.857 35.5477 46.2478C35.5477 47.0295 35.2871 48.2019 34.3752 48.0717Z" fill="#FBED24"/>
<path d="M42.3214 47.6807C41.67 47.9413 41.0187 47.9413 40.3673 47.9413C40.1067 47.6807 40.1067 47.811 40.3673 47.6807C41.1489 47.1596 41.9306 46.8991 42.8425 46.7688C43.2333 46.7688 43.7544 46.7688 44.1453 46.7688C43.4939 47.2899 42.8425 47.5505 42.3214 47.6807Z" fill="#FBED24"/>
<path d="M36.1958 47.1596C35.5444 47.1596 36.1958 46.2477 36.1958 45.9871C36.7169 45.3358 37.238 44.8147 37.8893 44.4238C37.3682 45.0752 37.3682 47.1596 36.1958 47.1596Z" fill="#FBED24"/>
<path d="M40.1094 47.0293C40.6305 46.899 41.1516 46.6385 41.6727 46.3779C41.6727 46.3779 42.1938 46.5082 42.4543 46.5082C41.9332 46.899 41.2819 47.0293 40.6305 47.0293H40.1094Z" fill="#FBED24"/>
<path d="M38.6661 46.6386C38.5358 46.6386 38.4055 45.9872 38.6661 45.9872C39.578 45.8569 40.4899 45.9872 41.4018 46.1175C40.8807 46.6386 38.9266 47.1597 38.6661 46.6386Z" fill="#FBED24"/>
<path d="M46.0995 44.8147C45.5784 45.5963 43.3637 47.0294 42.5821 46.2477C42.4518 46.1175 42.4518 45.9872 42.5821 45.8569C42.5821 45.8569 42.7124 45.8569 42.7124 45.7266C43.2335 45.4661 43.7546 45.2055 44.2757 45.0752C44.927 44.945 45.4481 45.0752 46.0995 44.8147Z" fill="#FBED24"/>
<path d="M38.1481 45.9873C37.4968 45.4662 38.7995 44.1634 39.1903 43.6423C39.1903 43.6423 39.0601 44.6845 39.0601 44.8148C39.0601 45.3359 38.6692 45.857 38.1481 45.9873Z" fill="#FBED24"/>
<path d="M42.5798 44.8147C42.8404 44.8147 43.1009 44.8147 43.3615 44.8147C42.9707 45.2056 40.1046 46.378 39.9743 45.5964C39.7138 44.2936 41.9285 44.8147 42.5798 44.8147Z" fill="#FBED24"/>
<path d="M6.10389 44.8147C5.97362 44.8147 5.84334 44.2936 6.10389 44.2936C6.36444 44.2936 6.49472 44.1633 6.75527 44.0331C6.88555 43.7725 6.88555 43.3817 6.625 43.2514C6.23417 42.9909 5.71307 42.9909 5.32224 43.1211C4.80114 42.9909 4.01949 42.7303 4.41032 42.0789C4.93142 41.9487 5.32224 41.5578 5.58279 41.0367C5.19197 40.7762 4.93142 40.3854 4.54059 39.9945C4.41031 39.6037 4.54059 39.2129 4.67087 38.8221C4.80114 38.8221 5.06169 38.4312 5.19197 38.5615C5.32224 38.6918 5.58279 38.5615 5.84334 38.5615C5.97362 38.9523 6.625 39.9945 7.1461 39.734C7.40665 39.4734 7.6672 39.3431 8.05802 39.3431C8.57913 39.4734 9.10023 39.8643 9.36078 40.2551C9.49105 40.5156 9.62133 40.7762 9.62133 41.0367C9.10023 41.0367 8.57913 41.167 8.31858 41.6881C8.1883 41.6881 8.05803 41.8184 7.92775 41.9487C7.6672 42.2092 7.92775 41.8184 7.6672 41.8184C7.53692 41.2973 7.53692 40.6459 7.6672 40.1248C7.40665 39.4734 7.40665 41.4276 7.40665 41.4276C7.53692 42.0789 7.01582 41.4276 6.88555 41.2973C6.36445 40.6459 5.84334 39.9945 5.32224 39.2129C4.80114 39.4734 6.75527 41.6881 7.1461 41.9487C6.625 42.0789 6.10389 42.0789 5.58279 41.9487C5.58279 42.0789 5.45252 42.2092 5.58279 42.2092C5.71307 42.2092 7.27637 42.4698 7.53692 42.4698V42.8606C7.53692 43.6422 7.92775 42.8606 7.92775 43.3817C7.92775 43.512 7.92775 43.7725 8.05802 43.9028C7.53692 43.9028 7.6672 44.2936 8.05802 44.2936C8.57913 44.2936 8.05802 44.6844 8.05802 44.8147C8.57913 44.8147 8.1883 45.0753 8.05802 45.2055C8.1883 45.8569 7.40665 45.5964 7.01582 45.5964C6.625 45.5964 6.49472 44.8147 6.10389 44.8147Z" fill="#039E49"/>
<path d="M39.5782 44.8147C38.6663 44.4239 40.2296 42.7303 40.6204 42.4697C40.4901 43.2514 40.3598 43.9028 39.969 44.6844C39.969 44.8147 39.8387 44.8147 39.5782 44.8147Z" fill="#FBED24"/>
<path d="M45.5776 43.5119C46.0987 43.3816 46.6198 43.2514 47.0106 43.1211C47.0106 43.3816 44.5354 45.7266 44.1446 44.6844C44.1446 44.5541 43.7538 44.033 44.5354 43.7725C44.9262 43.5119 45.3171 43.5119 45.5776 43.5119Z" fill="#FBED24"/>
<path d="M45.4453 42.6001C45.5756 42.2092 45.9664 41.8184 46.3572 41.5579C46.7481 41.4276 47.1389 41.2973 47.66 41.167C47.9205 41.167 48.3114 41.0368 48.5719 40.9065C47.9205 41.8184 47.5297 42.6001 46.6178 42.6001C46.3572 42.7303 46.227 42.7304 45.9664 42.7304C45.5756 42.7304 45.5756 42.7303 45.4453 42.6001Z" fill="#FBED24"/>
<path d="M43.751 43.3817C44.1418 43.3817 44.5327 43.3817 45.0538 43.3817C44.0116 43.9028 43.3602 44.6845 42.0574 44.4239C41.9272 44.4239 41.7969 44.1634 41.7969 44.0331C41.7969 44.0331 41.7969 43.9028 41.9272 43.9028C42.4483 43.512 43.0996 43.3817 43.751 43.3817Z" fill="#FBED24"/>
<path d="M41.1512 43.7724C40.8906 43.7724 40.8906 43.6422 40.8906 43.3816C41.1512 42.6 41.542 41.9486 42.1934 41.4275C41.9328 42.0789 41.6723 42.7302 41.6723 43.5119C41.542 43.7724 41.2815 43.9027 41.1512 43.7724C41.1512 43.7724 41.2815 43.7724 41.1512 43.7724Z" fill="#FBED24"/>
<path d="M46.3612 40.9065C45.9704 41.2973 43.6254 44.0331 42.8438 42.9909C42.8438 42.3395 44.1465 42.079 44.5373 41.9487C45.319 41.6881 45.8401 41.2973 46.3612 40.9065Z" fill="#FBED24"/>
<path d="M46.4844 40.5157C46.6147 39.734 47.266 39.0826 48.0477 39.2129C48.5688 39.0826 48.9596 38.9523 49.4807 38.5615C48.6991 39.4735 47.7871 41.2973 46.4844 40.5157Z" fill="#FBED24"/>
<path d="M42.3175 42.8605C41.4056 42.3394 43.8808 39.9945 44.2716 39.4734C44.0111 40.1248 43.7505 40.7761 43.49 41.4275C43.3597 41.9486 42.9689 42.4697 42.3175 42.8605Z" fill="#FBED24"/>
<path d="M43.8827 41.8184C43.3616 41.0367 44.5341 40.5156 44.6644 40.2551C44.7947 39.9945 45.5763 39.6037 45.8369 39.3431C45.7066 39.734 45.5763 40.1248 45.3158 40.3853C45.1855 41.167 44.5341 41.6881 43.8827 41.8184Z" fill="#FBED24"/>
<path d="M46.096 36.4771C46.096 37.2587 46.096 38.0404 45.8354 38.6917C45.7051 39.0826 45.184 39.7339 44.9235 39.3431C44.5327 38.822 44.6629 38.822 45.0538 38.0404C45.3143 37.5192 45.7051 36.9982 46.096 36.4771Z" fill="#FBED24"/>
<path d="M48.0519 38.8221C47.2703 38.8221 47.6611 37.7799 48.573 37.7799C49.0941 37.6496 49.4849 37.5193 49.8758 37.2588C49.4849 37.9102 48.8336 38.5615 48.0519 38.8221Z" fill="#FBED24"/>
<path d="M1.93243 33.7413C1.80215 33.7413 1.5416 33.0899 1.80215 32.9596C2.0627 32.8294 3.1049 32.4385 2.45353 31.7872C2.0627 31.5266 1.80215 31.0055 1.67188 30.4844C1.67188 30.0936 1.93243 29.7028 2.32325 29.7028C2.45353 29.7028 2.45353 29.7028 2.5838 29.7028C2.84435 29.833 2.97463 30.3541 3.1049 30.4844C3.49573 30.8752 3.36545 30.2239 3.62601 31.1358C3.88656 32.178 4.40766 33.2202 4.92876 34.1321C4.92876 34.5229 4.66821 34.1321 4.66821 34.0018C4.40766 33.3505 4.01683 32.6991 3.62601 32.178C3.36545 31.7872 3.1049 31.3963 2.97463 31.1358V31.1358C3.23518 31.7872 3.75628 32.4385 4.01683 33.0899C4.92876 34.5229 4.53793 34.3927 3.49573 33.2202C3.36545 33.4807 4.27738 34.0018 4.27738 34.2624C4.66821 34.6532 4.79848 35.1743 5.18931 35.4349C5.18931 35.5651 5.18931 35.8257 5.05904 35.956C4.66821 36.3468 5.58014 35.956 5.18931 36.3468C5.18931 36.3468 3.88656 36.6074 4.66821 36.6074C4.79848 36.7376 5.05903 36.7376 4.92876 36.9982C4.79848 36.7376 4.79848 36.7376 4.66821 36.9982C4.53793 37.1285 4.40766 37.389 4.53793 37.5193C4.79848 37.5193 4.01683 38.1707 3.75628 37.6496C3.75628 37.9101 3.88656 38.3009 4.14711 38.3009C4.01683 38.1707 3.88656 38.0404 3.75628 37.9101C3.49573 37.9101 3.36545 37.7798 3.23518 37.6496C2.84435 37.2587 2.71408 36.7376 2.84435 36.0862C4.01683 34.9138 2.71408 34.5229 1.93243 33.7413Z" fill="#039E49"/>
<path d="M47.2706 34.6532C46.8798 35.8257 47.922 37.1284 46.7495 37.9101C45.3165 37.9101 47.1404 35.044 47.2706 34.6532Z" fill="#FBED24"/>
<path d="M49.3538 35.5651C49.7446 35.3045 50.0052 35.044 50.396 34.7834C50.5263 35.1743 49.2235 37.6495 48.5721 36.9981C48.1813 36.6073 48.5721 36.477 48.5721 36.3468C48.8327 36.0862 49.0932 35.8257 49.3538 35.5651Z" fill="#FBED24"/>
<path d="M0.765625 34.3926L1.02618 34.1321V34.2624H1.15645H1.28673H1.417H1.54728H1.67755H1.80783V34.3926H1.9381H2.06838V34.5229V34.6532L1.9381 34.7835V34.9137L1.80783 35.044V35.1743L1.67755 35.3046H1.54728H1.417L1.28673 35.1743L1.15645 35.044L1.02618 34.9137L0.8959 34.7835L0.765625 34.6532V34.3926Z" fill="#D2AA68"/>
<path d="M49.2236 35.1743C48.0512 34.6532 49.875 32.8293 50.2658 31.7871C50.2658 32.8293 50.2658 35.5651 49.2236 35.1743Z" fill="#FBED24"/>
<path d="M6.35853 36.6074C6.09798 36.7377 5.96771 37.1285 6.09798 37.3891C6.22826 37.6496 6.61908 37.7799 6.87964 37.9102C7.27046 38.1707 6.35853 38.6918 6.87964 38.9524C7.40074 39.2129 7.40074 38.4313 7.66129 38.5616C7.92184 38.6918 6.22826 36.6074 6.35853 36.6074Z" fill="#039E49"/>
<path d="M26.9453 53.8038L27.3361 53.5432L29.6811 54.5854L28.6389 54.7157L26.9453 53.8038Z" fill="#039E49"/>
<path d="M23.8235 54.9761L22.7812 54.8458L26.1684 53.022L26.429 53.2825L23.8235 54.9761Z" fill="#FBED24"/>
<path d="M24.4731 53.1523L21.9979 54.455H21.607H21.0859L24.2125 53.022L24.4731 53.1523Z" fill="#FBED24"/>
<path d="M28.8959 53.022L28.7656 53.1523L30.9803 54.0642L31.5014 53.8036L28.8959 53.022Z" fill="#039E49"/>
<path d="M34.766 52.6312L33.9844 51.9798L40.2376 51.4587L39.5862 52.6312H34.766Z" fill="#039E49" stroke="#010101" stroke-width="0.02" stroke-miterlimit="2.61"/>
<path d="M36.8427 53.0221L36.5821 54.4551L28.7656 52.2404L29.1565 51.8496L36.8427 53.0221Z" fill="#039E49" stroke="#010101" stroke-width="0.02" stroke-miterlimit="2.61"/>
<path d="M18.2188 52.1101C18.349 52.3707 18.4793 52.6312 18.6096 52.8918C18.6096 53.2826 18.8701 53.5431 19.261 53.5431H19.3912C20.3032 53.1523 19.7821 52.7615 19.261 52.6312C18.8701 52.5009 18.6096 52.3707 18.2188 52.1101Z" stroke="#010101" stroke-width="0.03" stroke-miterlimit="2.61"/>
<path d="M26.033 47.1597C39.0605 47.1597 49.6128 36.6074 49.6128 23.5798C49.6128 10.5523 39.0605 0 26.033 0C13.0054 0 2.45312 10.5523 2.45312 23.5798C2.45312 36.6074 13.0054 47.1597 26.033 47.1597Z" fill="#FECB0D"/>
<path d="M47.9214 34.5229C47.9214 34.5229 48.4425 33.3504 48.3122 34.0018C48.3122 34.2624 48.703 36.3468 48.0517 36.6073C47.4003 36.8679 47.6608 35.8257 47.6608 35.5651C47.6608 35.3046 47.9214 34.7835 47.9214 34.5229Z" fill="#FBED24"/>
<path d="M26.0347 45.4661C38.1503 45.5964 47.921 35.6955 47.921 23.5799C47.921 11.4643 38.1503 1.6936 26.0347 1.6936C13.9191 1.6936 4.14844 11.4643 4.14844 23.5799C4.14844 35.6955 13.9191 45.4661 26.0347 45.4661Z" fill="#1EBAED"/>
<path d="M26.0331 42.3394C36.3248 42.3394 44.7927 34.0018 44.7927 23.5797C44.7927 13.288 36.4551 4.82007 26.0331 4.82007C15.7413 4.82007 7.27344 13.1577 7.27344 23.5797C7.27344 33.8715 15.7413 42.3394 26.0331 42.3394Z" fill="#E51E27"/>
<path d="M26.0338 38.6918C34.3714 38.6918 41.1458 31.9175 41.1458 23.5798C41.1458 15.2422 34.3714 8.4679 26.0338 8.4679C17.6962 8.4679 10.9219 15.2422 10.9219 23.5798C10.9219 31.9175 17.6962 38.6918 26.0338 38.6918Z" fill="#039E49"/>
<path d="M21.342 12.5063L10.6595 8.20722L15.0888 18.8898L4.40625 23.4494L14.9586 27.7485L10.6595 38.4311L21.342 34.132L25.9017 45.5963L30.4613 34.132L41.2742 38.4311L36.9751 27.7485L47.788 23.4494L36.8448 18.8898L41.2742 8.20722L30.5916 12.5063L25.9017 1.82373L21.342 12.5063Z" fill="#FECB0D"/>
<path d="M25.9032 3.9082L21.7344 13.5486L12.094 9.64032L16.1326 19.2807L6.49219 23.4495L16.0023 27.3578L12.094 36.9981L21.8647 32.9596L25.9032 43.3816L30.072 32.9596L39.7124 36.9981L35.9344 27.3578L45.5748 23.4495L35.6739 19.2807L39.7124 9.64032L30.2023 13.5486L25.9032 3.9082Z" fill="white"/>
<path d="M28.2546 30.0936C27.9941 30.4844 27.6032 30.8752 27.2124 31.1358C26.9519 31.1358 26.6913 31.1358 26.4308 31.0055C26.3005 30.8752 26.1702 30.8752 26.0399 30.8752C25.128 31.5266 23.9555 31.266 23.3041 30.4844C23.3041 30.4844 23.3041 30.3541 23.1739 30.3541C22.6528 29.833 22.3922 29.1816 22.2619 28.5303C22.2619 28.4 21.6106 26.3156 21.6106 26.055C21.6106 26.1853 21.4803 28.5303 21.7408 28.5303C19.7867 26.4459 20.9592 22.5376 22.2619 20.5835C22.1317 22.4073 22.2619 24.3615 22.6528 26.1853C22.783 27.0972 23.0436 27.8789 23.695 28.6605C23.695 28.7908 24.2161 28.9211 24.2161 28.5303C24.2161 28.2697 24.2161 27.8789 24.0858 27.6183C23.4344 26.5761 23.0436 25.2734 22.9133 23.9706C22.783 21.8862 23.1739 18.3688 24.6069 16.8055C24.8675 16.4147 24.9977 16.1541 24.8675 16.8055C24.9977 18.3688 25.128 20.0624 25.3886 21.6257C25.6491 22.7982 25.9097 22.9284 26.1702 23.9706C26.3005 24.622 26.3005 25.2734 26.1702 25.9248C26.0399 26.967 25.9097 27.8789 25.7794 28.9211C25.9097 29.3119 25.7794 29.4422 26.3005 29.4422C26.8216 29.4422 27.0821 27.6183 26.9519 27.2275C26.9519 26.055 26.8216 24.8826 26.4308 23.7101C26.3005 23.4495 26.0399 22.5376 25.9097 22.277C25.7794 22.0165 25.7794 21.6257 25.6491 21.3651C25.128 19.2807 25.128 16.9358 25.9097 14.8514C25.9097 14.5908 26.0399 14.3303 26.1702 14.0697C26.0399 14.5908 26.1702 15.1119 26.3005 15.633C26.3005 16.8055 28.6454 21.6257 28.906 22.6679C28.906 22.6679 29.1665 23.4495 29.2968 23.8404C29.4271 25.2734 29.4271 26.7064 29.2968 28.1394C28.906 28.6605 28.6454 29.4422 28.2546 30.0936Z" fill="#E51E27"/>
<path d="M28.3781 30.0936C28.8992 29.312 29.1598 28.5303 29.2901 27.6184C29.5506 26.3156 29.5506 24.8826 29.4203 23.5798C29.2901 22.5376 28.8992 21.4954 28.5084 20.5835C27.857 19.2808 27.4662 17.8477 27.3359 16.2844C27.5965 16.545 27.7268 16.8055 27.857 17.1964C28.3781 18.2386 29.2901 19.1505 29.8112 20.0624C30.4625 21.1046 30.9836 22.1468 31.2442 23.3193C31.5047 26.0551 30.4625 28.5303 28.3781 30.0936Z" fill="#E51E27"/>
<path d="M18.0889 41.6881C18.4797 41.6881 18.7403 41.9487 18.7403 42.3395C18.7403 42.7303 18.4797 43.1211 18.0889 43.1211C17.6981 43.1211 17.4375 42.8606 17.4375 42.4698C17.4375 42.0789 17.6981 41.6881 18.0889 41.6881Z" fill="#FECB0D"/>
<path d="M33.2002 42.079C33.4608 41.8184 33.8516 41.8184 34.1121 42.079C34.3727 42.3395 34.3727 42.8606 33.9819 43.1212C33.7213 43.3817 33.3305 43.3817 33.0699 43.1212C32.9397 42.7303 32.9397 42.3395 33.2002 42.079Z" fill="#FECB0D"/>
<path d="M44.1406 31.5266C44.1406 31.1358 44.4012 30.8752 44.792 30.8752C45.1828 30.8752 45.4434 31.1358 45.4434 31.5266C45.4434 31.9174 45.1828 32.178 44.792 32.178C44.4012 32.3083 44.1406 31.9174 44.1406 31.5266Z" fill="#FECB0D"/>
<path d="M44.4012 16.4147C44.1406 16.0238 44.2709 15.633 44.6617 15.5027C44.9223 15.3725 45.1828 15.3725 45.3131 15.5027C45.5737 15.7633 45.7039 16.1541 45.4434 16.5449C45.1828 16.8055 44.6617 16.8055 44.4012 16.4147C44.4012 16.5449 44.4012 16.5449 44.4012 16.4147Z" fill="#FECB0D"/>
<path d="M18.8644 5.34125C18.6039 5.6018 18.213 5.6018 17.8222 5.34125C17.5617 5.0807 17.5617 4.5596 17.9525 4.29905C18.213 4.0385 18.6039 4.0385 18.8644 4.29905C19.125 4.68988 19.125 5.0807 18.8644 5.34125Z" fill="#FECB0D"/>
<path d="M7.92775 15.7633C7.92775 16.1541 7.6672 16.4147 7.27638 16.4147C6.88555 16.4147 6.625 16.1541 6.625 15.7633C6.625 15.3725 6.88555 15.1119 7.27638 15.1119C7.6672 15.1119 7.92775 15.3725 7.92775 15.7633Z" fill="#FECB0D"/>
<path d="M7.6673 30.8752C7.92785 31.1358 7.92785 31.6569 7.53703 31.9174C7.27648 32.178 6.88565 32.178 6.6251 31.9174C6.36455 31.6569 6.36455 31.266 6.6251 30.8752C6.88565 30.6147 7.40675 30.6147 7.6673 30.8752Z" fill="#FECB0D"/>
<path d="M8.05803 45.5963V46.7688C8.05803 46.7688 6.625 46.7688 6.625 46.3779C6.88555 45.8568 7.53693 45.466 8.05803 45.5963Z" fill="#D2AA68"/>
<path d="M11.442 52.1101L12.4842 52.7615C12.4842 52.7615 11.8328 53.934 11.442 53.8037C11.1814 53.1523 11.0511 52.5009 11.442 52.1101Z" fill="#D2AA68"/>
<path d="M26.9457 48.5927L26.1641 47.6808C26.4246 47.4202 26.8154 47.1597 27.3365 47.1597C27.4668 47.811 27.3365 48.3321 26.9457 48.5927Z" fill="#D2AA68"/>
<path d="M20.8211 52.501L21.733 53.2826C21.733 53.2826 20.9513 54.3248 20.5605 54.0643C20.1697 53.8037 20.4302 53.1524 20.8211 52.501Z" fill="#D2AA68"/>
<path d="M38.2791 48.8532C39.5819 48.4624 40.8846 47.9413 42.0571 47.2899M37.3672 50.0257C38.5397 49.8954 39.7121 49.5046 40.7543 49.1138L37.3672 50.0257Z" stroke="#010101" stroke-width="0.29" stroke-miterlimit="2.61" stroke-linecap="round"/>
<path d="M46.229 41.0367C46.6198 40.7762 47.0106 40.3853 47.2712 39.9945M41.5391 46.1174C42.5813 45.7266 43.6235 45.2055 44.6657 44.5541L41.5391 46.1174ZM43.6235 44.6844C43.6235 44.6844 45.0565 43.9028 46.229 43.1211L43.6235 44.6844ZM45.0565 43.2514C45.9684 42.8606 46.8804 42.3395 47.5317 41.5578L45.0565 43.2514Z" stroke="#010101" stroke-width="0.26" stroke-miterlimit="2.61" stroke-linecap="round"/>
<path d="M44.5315 39.734C44.9223 39.4735 45.3131 39.0826 45.5737 38.6918M44.1406 39.4735C44.5315 39.2129 44.9223 38.8221 45.1828 38.4313L44.1406 39.4735ZM44.4012 39.6037C44.792 39.3432 45.1828 38.9524 45.4434 38.5615L44.4012 39.6037Z" stroke="#010101" stroke-width="0.14" stroke-miterlimit="2.61" stroke-linecap="round"/>
<path d="M42.0625 46.8991C42.7139 46.6386 43.3653 46.378 44.0166 45.9872" stroke="#010101" stroke-width="0.26" stroke-miterlimit="2.61" stroke-linecap="round"/>
<path d="M34.377 5.34131C34.1165 5.60186 33.7256 5.60186 33.3348 5.34131C33.0742 5.08076 32.944 4.68994 33.2045 4.29911C33.5953 4.16884 33.9862 4.03856 34.377 4.29911C34.377 4.29911 34.5073 4.29911 34.5073 4.42939C34.6376 4.68994 34.6376 5.08076 34.377 5.34131Z" fill="#FECB0D"/>
<path d="M68.532 19.624C68.532 17.992 68.9 16.528 69.636 15.232C70.372 13.92 71.372 12.896 72.636 12.16C73.916 11.424 75.332 11.056 76.884 11.056C78.708 11.056 80.3 11.496 81.66 12.376C83.02 13.256 84.012 14.504 84.636 16.12H82.02C81.556 15.112 80.884 14.336 80.004 13.792C79.14 13.248 78.1 12.976 76.884 12.976C75.716 12.976 74.668 13.248 73.74 13.792C72.812 14.336 72.084 15.112 71.556 16.12C71.028 17.112 70.764 18.28 70.764 19.624C70.764 20.952 71.028 22.12 71.556 23.128C72.084 24.12 72.812 24.888 73.74 25.432C74.668 25.976 75.716 26.248 76.884 26.248C78.1 26.248 79.14 25.984 80.004 25.456C80.884 24.912 81.556 24.136 82.02 23.128H84.636C84.012 24.728 83.02 25.968 81.66 26.848C80.3 27.712 78.708 28.144 76.884 28.144C75.332 28.144 73.916 27.784 72.636 27.064C71.372 26.328 70.372 25.312 69.636 24.016C68.9 22.72 68.532 21.256 68.532 19.624ZM90.0711 13.048V18.64H96.1671V20.44H90.0711V26.2H96.8871V28H87.8871V11.248H96.8871V13.048H90.0711ZM113.344 28H111.16L102.376 14.68V28H100.192V11.248H102.376L111.16 24.544V11.248H113.344V28ZM127.363 11.272V13.048H122.803V28H120.619V13.048H116.035V11.272H127.363ZM138.859 28L134.875 21.16H132.235V28H130.051V11.272H135.451C136.715 11.272 137.779 11.488 138.643 11.92C139.523 12.352 140.179 12.936 140.611 13.672C141.043 14.408 141.259 15.248 141.259 16.192C141.259 17.344 140.923 18.36 140.251 19.24C139.595 20.12 138.603 20.704 137.275 20.992L141.475 28H138.859ZM132.235 19.408H135.451C136.635 19.408 137.523 19.12 138.115 18.544C138.707 17.952 139.003 17.168 139.003 16.192C139.003 15.2 138.707 14.432 138.115 13.888C137.539 13.344 136.651 13.072 135.451 13.072H132.235V19.408ZM154.541 24.28H147.245L145.901 28H143.597L149.645 11.368H152.165L158.189 28H155.885L154.541 24.28ZM153.917 22.504L150.893 14.056L147.869 22.504H153.917ZM163.009 26.224H168.865V28H160.825V11.272H163.009V26.224ZM185.958 19.384C186.566 19.48 187.118 19.728 187.614 20.128C188.126 20.528 188.526 21.024 188.814 21.616C189.118 22.208 189.27 22.84 189.27 23.512C189.27 24.36 189.054 25.128 188.622 25.816C188.19 26.488 187.558 27.024 186.726 27.424C185.91 27.808 184.942 28 183.822 28H177.582V11.272H183.582C184.718 11.272 185.686 11.464 186.486 11.848C187.286 12.216 187.886 12.72 188.286 13.36C188.686 14 188.886 14.72 188.886 15.52C188.886 16.512 188.614 17.336 188.07 17.992C187.542 18.632 186.838 19.096 185.958 19.384ZM179.766 18.496H183.438C184.462 18.496 185.254 18.256 185.814 17.776C186.374 17.296 186.654 16.632 186.654 15.784C186.654 14.936 186.374 14.272 185.814 13.792C185.254 13.312 184.446 13.072 183.39 13.072H179.766V18.496ZM183.63 26.2C184.718 26.2 185.566 25.944 186.174 25.432C186.782 24.92 187.086 24.208 187.086 23.296C187.086 22.368 186.766 21.64 186.126 21.112C185.486 20.568 184.63 20.296 183.558 20.296H179.766V26.2H183.63ZM202.189 24.28H194.893L193.549 28H191.245L197.293 11.368H199.813L205.837 28H203.533L202.189 24.28ZM201.565 22.504L198.541 14.056L195.517 22.504H201.565ZM221.625 28H219.441L210.657 14.68V28H208.473V11.248H210.657L219.441 24.544V11.248H221.625V28ZM234.42 28L227.532 20.368V28H225.348V11.272H227.532V19.024L234.444 11.272H237.204L229.62 19.648L237.276 28H234.42Z" fill="#203147"/>
<path d="M71.823 45.077C71.1117 45.077 70.4627 44.912 69.876 44.582C69.2893 44.2447 68.8237 43.779 68.479 43.185C68.1417 42.5837 67.973 41.909 67.973 41.161C67.973 40.413 68.1417 39.742 68.479 39.148C68.8237 38.5467 69.2893 38.081 69.876 37.751C70.4627 37.4137 71.1117 37.245 71.823 37.245C72.5417 37.245 73.1943 37.4137 73.781 37.751C74.3677 38.081 74.8297 38.543 75.167 39.137C75.5043 39.731 75.673 40.4057 75.673 41.161C75.673 41.9163 75.5043 42.591 75.167 43.185C74.8297 43.779 74.3677 44.2447 73.781 44.582C73.1943 44.912 72.5417 45.077 71.823 45.077ZM71.823 44.208C72.3583 44.208 72.8387 44.0833 73.264 43.834C73.6967 43.5847 74.034 43.229 74.276 42.767C74.5253 42.305 74.65 41.7697 74.65 41.161C74.65 40.545 74.5253 40.0097 74.276 39.555C74.034 39.093 73.7003 38.7373 73.275 38.488C72.8497 38.2387 72.3657 38.114 71.823 38.114C71.2803 38.114 70.7963 38.2387 70.371 38.488C69.9457 38.7373 69.6083 39.093 69.359 39.555C69.117 40.0097 68.996 40.545 68.996 41.161C68.996 41.7697 69.117 42.305 69.359 42.767C69.6083 43.229 69.9457 43.5847 70.371 43.834C70.8037 44.0833 71.2877 44.208 71.823 44.208ZM81.3285 37.333V38.147H77.9955V40.732H80.7015V41.546H77.9955V45H76.9945V37.333H81.3285ZM90.189 37.333V38.147H88.099V45H87.098V38.147H84.997V37.333H90.189ZM97.3282 37.333V45H96.3272V41.524H92.4222V45H91.4212V37.333H92.4222V40.699H96.3272V37.333H97.3282ZM100.038 38.147V40.71H102.832V41.535H100.038V44.175H103.162V45H99.0374V37.322H103.162V38.147H100.038ZM111.647 45L109.821 41.865H108.611V45H107.61V37.333H110.085C110.664 37.333 111.152 37.432 111.548 37.63C111.951 37.828 112.252 38.0957 112.45 38.433C112.648 38.7703 112.747 39.1553 112.747 39.588C112.747 40.116 112.593 40.5817 112.285 40.985C111.984 41.3883 111.529 41.656 110.921 41.788L112.846 45H111.647ZM108.611 41.062H110.085C110.627 41.062 111.034 40.93 111.306 40.666C111.577 40.3947 111.713 40.0353 111.713 39.588C111.713 39.1333 111.577 38.7813 111.306 38.532C111.042 38.2827 110.635 38.158 110.085 38.158H108.611V41.062ZM115.303 38.147V40.71H118.097V41.535H115.303V44.175H118.427V45H114.302V37.322H118.427V38.147H115.303ZM125.068 39.577C125.068 40.215 124.848 40.7467 124.408 41.172C123.975 41.59 123.311 41.799 122.417 41.799H120.943V45H119.942V37.333H122.417C123.282 37.333 123.938 37.542 124.386 37.96C124.84 38.378 125.068 38.917 125.068 39.577ZM122.417 40.974C122.974 40.974 123.385 40.853 123.649 40.611C123.913 40.369 124.045 40.0243 124.045 39.577C124.045 38.631 123.502 38.158 122.417 38.158H120.943V40.974H122.417ZM127.291 37.333V42.184C127.291 42.866 127.456 43.372 127.786 43.702C128.123 44.032 128.589 44.197 129.183 44.197C129.77 44.197 130.228 44.032 130.558 43.702C130.895 43.372 131.064 42.866 131.064 42.184V37.333H132.065V42.173C132.065 42.811 131.937 43.35 131.68 43.79C131.423 44.2227 131.075 44.5453 130.635 44.758C130.202 44.9707 129.715 45.077 129.172 45.077C128.629 45.077 128.138 44.9707 127.698 44.758C127.265 44.5453 126.921 44.2227 126.664 43.79C126.415 43.35 126.29 42.811 126.29 42.173V37.333H127.291ZM137.574 41.051C137.852 41.095 138.105 41.2087 138.333 41.392C138.567 41.5753 138.751 41.8027 138.883 42.074C139.022 42.3453 139.092 42.635 139.092 42.943C139.092 43.3317 138.993 43.6837 138.795 43.999C138.597 44.307 138.307 44.5527 137.926 44.736C137.552 44.912 137.108 45 136.595 45H133.735V37.333H136.485C137.005 37.333 137.449 37.421 137.816 37.597C138.182 37.7657 138.457 37.9967 138.641 38.29C138.824 38.5833 138.916 38.9133 138.916 39.28C138.916 39.7347 138.791 40.1123 138.542 40.413C138.3 40.7063 137.977 40.919 137.574 41.051ZM134.736 40.644H136.419C136.888 40.644 137.251 40.534 137.508 40.314C137.764 40.094 137.893 39.7897 137.893 39.401C137.893 39.0123 137.764 38.708 137.508 38.488C137.251 38.268 136.881 38.158 136.397 38.158H134.736V40.644ZM136.507 44.175C137.005 44.175 137.394 44.0577 137.673 43.823C137.951 43.5883 138.091 43.262 138.091 42.844C138.091 42.4187 137.944 42.085 137.651 41.843C137.357 41.5937 136.965 41.469 136.474 41.469H134.736V44.175H136.507ZM141.482 44.186H144.166V45H140.481V37.333H141.482V44.186ZM146.23 37.333V45H145.229V37.333H146.23ZM147.562 41.161C147.562 40.413 147.731 39.742 148.068 39.148C148.405 38.5467 148.864 38.0773 149.443 37.74C150.03 37.4027 150.679 37.234 151.39 37.234C152.226 37.234 152.956 37.4357 153.579 37.839C154.202 38.2423 154.657 38.8143 154.943 39.555H153.744C153.531 39.093 153.223 38.7373 152.82 38.488C152.424 38.2387 151.947 38.114 151.39 38.114C150.855 38.114 150.374 38.2387 149.949 38.488C149.524 38.7373 149.19 39.093 148.948 39.555C148.706 40.0097 148.585 40.545 148.585 41.161C148.585 41.7697 148.706 42.305 148.948 42.767C149.19 43.2217 149.524 43.5737 149.949 43.823C150.374 44.0723 150.855 44.197 151.39 44.197C151.947 44.197 152.424 44.076 152.82 43.834C153.223 43.5847 153.531 43.229 153.744 42.767H154.943C154.657 43.5003 154.202 44.0687 153.579 44.472C152.956 44.868 152.226 45.066 151.39 45.066C150.679 45.066 150.03 44.901 149.443 44.571C148.864 44.2337 148.405 43.768 148.068 43.174C147.731 42.58 147.562 41.909 147.562 41.161ZM162.842 45.077C162.13 45.077 161.481 44.912 160.895 44.582C160.308 44.2447 159.842 43.779 159.498 43.185C159.16 42.5837 158.992 41.909 158.992 41.161C158.992 40.413 159.16 39.742 159.498 39.148C159.842 38.5467 160.308 38.081 160.895 37.751C161.481 37.4137 162.13 37.245 162.842 37.245C163.56 37.245 164.213 37.4137 164.8 37.751C165.386 38.081 165.848 38.543 166.186 39.137C166.523 39.731 166.692 40.4057 166.692 41.161C166.692 41.9163 166.523 42.591 166.186 43.185C165.848 43.779 165.386 44.2447 164.8 44.582C164.213 44.912 163.56 45.077 162.842 45.077ZM162.842 44.208C163.377 44.208 163.857 44.0833 164.283 43.834C164.715 43.5847 165.053 43.229 165.295 42.767C165.544 42.305 165.669 41.7697 165.669 41.161C165.669 40.545 165.544 40.0097 165.295 39.555C165.053 39.093 164.719 38.7373 164.294 38.488C163.868 38.2387 163.384 38.114 162.842 38.114C162.299 38.114 161.815 38.2387 161.39 38.488C160.964 38.7373 160.627 39.093 160.378 39.555C160.136 40.0097 160.015 40.545 160.015 41.161C160.015 41.7697 160.136 42.305 160.378 42.767C160.627 43.229 160.964 43.5847 161.39 43.834C161.822 44.0833 162.306 44.208 162.842 44.208ZM172.347 37.333V38.147H169.014V40.732H171.72V41.546H169.014V45H168.013V37.333H172.347ZM181.021 43.295H177.677L177.061 45H176.005L178.777 37.377H179.932L182.693 45H181.637L181.021 43.295ZM180.735 42.481L179.349 38.609L177.963 42.481H180.735ZM184.748 44.131H188.488V45H183.56V44.208L187.278 38.202H183.604V37.333H188.466V38.125L184.748 44.131ZM190.853 38.147V40.71H193.647V41.535H190.853V44.175H193.977V45H189.852V37.322H193.977V38.147H190.853ZM199.529 45L197.703 41.865H196.493V45H195.492V37.333H197.967C198.546 37.333 199.034 37.432 199.43 37.63C199.833 37.828 200.134 38.0957 200.332 38.433C200.53 38.7703 200.629 39.1553 200.629 39.588C200.629 40.116 200.475 40.5817 200.167 40.985C199.866 41.3883 199.411 41.656 198.803 41.788L200.728 45H199.529ZM196.493 41.062H197.967C198.509 41.062 198.916 40.93 199.188 40.666C199.459 40.3947 199.595 40.0353 199.595 39.588C199.595 39.1333 199.459 38.7813 199.188 38.532C198.924 38.2827 198.517 38.158 197.967 38.158H196.493V41.062ZM206.023 41.051C206.302 41.095 206.555 41.2087 206.782 41.392C207.017 41.5753 207.2 41.8027 207.332 42.074C207.471 42.3453 207.541 42.635 207.541 42.943C207.541 43.3317 207.442 43.6837 207.244 43.999C207.046 44.307 206.756 44.5527 206.375 44.736C206.001 44.912 205.557 45 205.044 45H202.184V37.333H204.934C205.455 37.333 205.898 37.421 206.265 37.597C206.632 37.7657 206.907 37.9967 207.09 38.29C207.273 38.5833 207.365 38.9133 207.365 39.28C207.365 39.7347 207.24 40.1123 206.991 40.413C206.749 40.7063 206.426 40.919 206.023 41.051ZM203.185 40.644H204.868C205.337 40.644 205.7 40.534 205.957 40.314C206.214 40.094 206.342 39.7897 206.342 39.401C206.342 39.0123 206.214 38.708 205.957 38.488C205.7 38.268 205.33 38.158 204.846 38.158H203.185V40.644ZM204.956 44.175C205.455 44.175 205.843 44.0577 206.122 43.823C206.401 43.5883 206.54 43.262 206.54 42.844C206.54 42.4187 206.393 42.085 206.1 41.843C205.807 41.5937 205.414 41.469 204.923 41.469H203.185V44.175H204.956ZM213.462 43.295H210.118L209.502 45H208.446L211.218 37.377H212.373L215.134 45H214.078L213.462 43.295ZM213.176 42.481L211.79 38.609L210.404 42.481H213.176ZM217.343 37.333V45H216.342V37.333H217.343ZM222.91 37.333V42.998C222.91 43.6287 222.716 44.1347 222.327 44.516C221.938 44.89 221.425 45.077 220.787 45.077C220.142 45.077 219.625 44.8863 219.236 44.505C218.847 44.1163 218.653 43.5883 218.653 42.921H219.654C219.661 43.295 219.757 43.5993 219.94 43.834C220.131 44.0687 220.413 44.186 220.787 44.186C221.161 44.186 221.44 44.076 221.623 43.856C221.806 43.6287 221.898 43.3427 221.898 42.998V37.333H222.91ZM229.414 43.295H226.07L225.454 45H224.398L227.17 37.377H228.325L231.086 45H230.03L229.414 43.295ZM229.128 42.481L227.742 38.609L226.356 42.481H229.128ZM238.322 45H237.321L233.295 38.895V45H232.294V37.322H233.295L237.321 43.416V37.322H238.322V45Z" fill="#203147"/>
</svg>
