<svg width="17" height="17" viewBox="0 0 17 17" fill="none" xmlns="http://www.w3.org/2000/svg">
<path fill-rule="evenodd" clip-rule="evenodd" d="M10.5 2.47974C12.7092 2.47974 14.5 4.2706 14.5 6.47974C14.5 8.68887 12.7092 10.4797 10.5 10.4797C8.29089 10.4797 6.50003 8.68887 6.50003 6.47974C6.50003 4.2706 8.29089 2.47974 10.5 2.47974ZM16.5 6.47974C16.5 3.16603 13.8137 0.479736 10.5 0.479736C7.18632 0.479736 4.50004 3.16603 4.50004 6.47974C4.50004 7.77557 4.91083 8.97545 5.60929 9.95627L0.792942 14.7726C0.402418 15.1632 0.402418 15.7963 0.792942 16.1868C1.18346 16.5774 1.81663 16.5774 2.20715 16.1868L7.02349 11.3705C8.00431 12.0689 9.20419 12.4797 10.5 12.4797C13.8137 12.4797 16.5 9.79344 16.5 6.47974Z" fill="#203147"/>
</svg>
